<svg width="36" height="37" viewBox="0 0 36 37" fill="none" xmlns="http://www.w3.org/2000/svg">
<path d="M26.4853 25.4853C24.9052 27.0654 21.3859 30.5847 19.412 32.5585C18.631 33.3396 17.3686 33.3391 16.5875 32.5581C14.6461 30.6167 11.2022 27.1728 9.51472 25.4853C4.82843 20.799 4.82843 13.201 9.51472 8.51472C14.201 3.82843 21.799 3.82843 26.4853 8.51472C31.1716 13.201 31.1716 20.799 26.4853 25.4853Z" stroke="#FAF3EB" stroke-width="2" stroke-linecap="round" stroke-linejoin="round"/>
<path d="M22.5 17C22.5 19.4853 20.4853 21.5 18 21.5C15.5147 21.5 13.5 19.4853 13.5 17C13.5 14.5147 15.5147 12.5 18 12.5C20.4853 12.5 22.5 14.5147 22.5 17Z" stroke="#FAF3EB" stroke-width="2" stroke-linecap="round" stroke-linejoin="round"/>
</svg>
