<svg width="232" height="184" viewBox="0 0 232 184" fill="none" xmlns="http://www.w3.org/2000/svg">
<path d="M149.356 0H232L227.021 32.0573C226.225 42.2453 222.707 62.0652 221.047 70.7017C218.658 85.4568 211.422 102.32 208.103 108.907L196.652 127.351C185.5 144.214 170.432 156.041 164.292 159.847C152.742 167.927 132.263 174.339 123.468 176.535C105.545 181.102 76.8355 183.414 64.721 184H0C7.96567 181.892 27.216 170.826 35.8455 165.556C43.4129 160.286 56.5894 148.137 62.2318 142.721C70.5957 133.235 79.9886 118.861 83.6395 112.859C92.0034 96.3475 96.7496 79.6309 98.0773 73.3365C100.467 54.7169 107.039 37.7661 110.026 31.6181C119.186 8.4315 140.063 0.878282 149.356 0Z" fill="#E1261C"/>
</svg>
